<?xml version="1.0"?>
<svg xmlns="http://www.w3.org/2000/svg" viewBox="0 0 48 48" width="512" height="512"><g id="Line"><path d="M35,2H13A11,11,0,0,0,2,13V35A11,11,0,0,0,13,46H35A11,11,0,0,0,46,35V13A11,11,0,0,0,35,2Zm9,33a9,9,0,0,1-9,9H13a9,9,0,0,1-9-9V13a9,9,0,0,1,9-9H35a9,9,0,0,1,9,9Z"/><path d="M34,6H14a8,8,0,0,0-8,8V34a8,8,0,0,0,8,8H34a8,8,0,0,0,8-8V14A8,8,0,0,0,34,6Zm6,28a6,6,0,0,1-6,6H14a6,6,0,0,1-6-6V14a6,6,0,0,1,6-6H34a6,6,0,0,1,6,6Z"/><path d="M37.32,16.05C34.65,15.16,33,13.23,33,11a1,1,0,0,0-1-1H26a1,1,0,0,0-1,1V29a2,2,0,1,1-2-2,1,1,0,0,0,1-1V20a1,1,0,0,0-1-1A10,10,0,1,0,33,29V21.48l3.63,1.45a1,1,0,0,0,.93-.1A1,1,0,0,0,38,22V17A1,1,0,0,0,37.32,16.05ZM36,20.52l-3.63-1.45a1,1,0,0,0-.93.1A1,1,0,0,0,31,20v9a8,8,0,1,1-9-7.94v4.07A4,4,0,1,0,27,29V12h4.08A7.57,7.57,0,0,0,36,17.7Z"/></g></svg>
